<?xml version="1.0" standalone="no"?>
<!DOCTYPE svg PUBLIC "-//W3C//DTD SVG 20010904//EN"
 "http://www.w3.org/TR/2001/REC-SVG-20010904/DTD/svg10.dtd">
<svg version="1.0" xmlns="http://www.w3.org/2000/svg"
 width="531.000000pt" height="531.000000pt" viewBox="0 0 531.000000 531.000000"
 preserveAspectRatio="xMidYMid meet">
<metadata>
Created by potrace 1.14, written by Peter Selinger 2001-2017
</metadata>
<g transform="translate(0.000000,531.000000) scale(0.100000,-0.100000)"
fill="#000000" stroke="none">
<path d="M3638 3903 l-478 -478 -205 205 -205 205 -190 -190 c-104 -104 -191
-187 -192 -185 -2 3 -11 21 -20 40 -67 149 -237 186 -355 78 -30 -29 -48 -55
-56 -85 l-11 -44 -253 253 -253 253 -375 -375 c-324 -324 -373 -377 -360 -389
12 -12 37 8 181 148 92 88 173 161 179 161 6 0 51 -41 100 -90 l90 -90 92 92
93 93 93 -93 92 -92 95 95 95 95 67 -67 c38 -37 68 -72 68 -77 0 -5 22 -58 50
-118 27 -60 50 -114 50 -121 0 -7 -53 -66 -119 -131 l-118 -118 -71 36 c-210
106 -474 125 -692 51 -102 -35 -218 -98 -294 -161 -61 -50 -66 -58 -53 -71 14
-14 22 -10 75 33 112 90 216 144 353 181 89 24 329 24 418 0 137 -37 244 -92
349 -179 51 -42 59 -45 72 -32 16 16 19 12 -94 106 -21 17 -19 19 90 129 l111
111 19 -30 c38 -65 107 -62 140 7 78 162 144 308 144 318 0 24 14 13 107 -79
l93 -93 95 95 95 95 93 -93 92 -92 93 92 92 93 258 -255 c143 -140 260 -258
260 -262 1 -4 -19 -10 -45 -13 -343 -48 -701 -213 -932 -431 -73 -69 -80 -79
-67 -92 13 -14 21 -9 73 39 340 314 791 478 1258 456 422 -20 783 -167 1111
-453 53 -47 63 -52 74 -39 11 13 3 24 -50 73 -152 138 -348 261 -539 338 -221
89 -415 125 -662 125 l-155 0 -255 255 -254 254 205 205 205 205 127 -127 128
-128 128 128 c70 70 132 127 137 127 5 0 67 -57 137 -127 l128 -128 128 128
127 127 215 -215 c191 -191 216 -213 230 -200 13 14 -39 69 -475 505 -270 270
-492 490 -495 490 -3 0 -220 -215 -482 -477z m725 159 l247 -247 -118 -118
-117 -117 -130 130 -130 130 -130 -130 -130 -130 -120 120 -120 120 245 245
c135 135 247 245 250 245 3 0 117 -111 253 -248z m-2675 -609 l-83 -83 -95 95
-95 95 -93 -92 -92 -93 -82 83 -83 82 175 175 175 175 177 -177 178 -178 -82
-82z m1232 132 l175 -175 -83 -82 -82 -83 -93 93 -92 92 -93 -92 -92 -93 -85
85 -85 85 172 172 c95 95 175 173 178 173 3 0 84 -79 180 -175z m-675 -29 c48
-37 79 -105 72 -160 -3 -23 -39 -112 -81 -199 -64 -133 -80 -158 -97 -155 -15
2 -38 43 -94 165 -85 184 -92 227 -52 298 49 87 172 112 252 51z"/>
<path d="M2078 3525 c-54 -30 -73 -107 -43 -165 28 -55 105 -76 165 -45 41 21
60 53 60 102 0 62 -48 113 -110 119 -29 3 -55 -1 -72 -11z m113 -54 c17 -13
23 -29 23 -56 0 -93 -132 -102 -150 -10 -13 68 71 112 127 66z"/>
<path d="M2091 2977 c-15 -39 -17 -70 -5 -74 12 -4 46 81 36 91 -11 12 -23 5
-31 -17z"/>
<path d="M2047 2768 c-3 -24 -2 -47 3 -52 14 -14 17 -7 22 47 7 61 -17 66 -25
5z"/>
<path d="M2055 2593 c7 -40 20 -61 31 -51 12 13 -7 88 -23 88 -12 0 -14 -8 -8
-37z"/>
<path d="M3830 2613 c-44 -7 -54 -13 -43 -24 14 -14 93 0 93 17 0 14 -4 15
-50 7z"/>
<path d="M3980 2610 c0 -12 11 -16 63 -24 42 -5 54 17 15 28 -36 9 -78 7 -78
-4z"/>
<path d="M3656 2563 c-24 -13 -35 -13 -67 -3 -68 23 -129 -23 -129 -96 0 -15
-8 -33 -17 -40 -17 -12 -17 -13 0 -19 9 -4 23 -3 30 3 8 7 18 6 31 -4 29 -21
71 -17 103 10 23 20 28 32 27 69 -1 41 1 45 33 56 32 12 41 25 25 34 -4 3 -20
-2 -36 -10z m-58 -41 c31 -39 1 -102 -48 -102 -37 0 -62 30 -58 71 5 55 72 74
106 31z"/>
<path d="M4175 2569 c-4 -6 -5 -11 -4 -12 16 -10 82 -37 89 -37 23 0 7 21 -30
40 -46 23 -47 23 -55 9z"/>
<path d="M4350 2471 c0 -11 58 -61 70 -61 22 0 16 18 -15 43 -35 28 -55 34
-55 18z"/>
<path d="M2100 2445 c0 -20 35 -85 46 -85 18 0 18 12 -3 55 -9 19 -23 35 -30
35 -7 0 -13 -2 -13 -5z"/>
<path d="M4490 2341 c0 -5 12 -24 27 -43 15 -18 28 -35 29 -37 2 -1 8 0 14 4
7 4 -1 21 -21 46 -29 37 -49 49 -49 30z"/>
<path d="M3347 2322 c-19 -20 -22 -42 -8 -42 11 0 41 39 41 52 0 14 -16 9 -33
-10z"/>
<path d="M2190 2284 c0 -3 5 -14 10 -25 11 -19 0 -19 -639 -19 -629 0 -652 -1
-705 -20 -29 -12 -74 -38 -99 -60 -78 -69 -77 -64 -77 -448 0 -329 1 -340 21
-366 32 -41 71 -56 143 -56 l66 0 19 -38 c26 -52 82 -99 126 -108 58 -10 132
13 176 57 21 21 41 50 45 64 l6 25 597 0 596 0 24 -46 c61 -114 221 -133 304
-34 14 16 28 38 32 49 5 16 19 19 124 23 131 6 179 21 215 71 20 27 21 41 21
365 0 329 -1 338 -22 378 -30 56 -92 107 -154 127 -44 15 -104 17 -410 17
l-359 0 -16 25 c-14 22 -44 35 -44 19z m842 -117 c53 -26 108 -76 108 -98 0
-5 -473 -9 -1200 -9 -660 0 -1200 3 -1200 6 0 3 9 19 21 35 29 42 98 78 165
88 33 5 507 8 1054 7 l995 -1 57 -28z m128 -142 c0 -13 -21 -15 -125 -15
l-125 0 0 -240 0 -240 125 0 125 0 0 -69 c0 -59 -4 -74 -24 -98 -24 -28 -26
-28 -154 -31 l-129 -4 -7 32 c-19 99 -140 158 -239 116 -43 -18 -96 -73 -105
-111 l-8 -30 -601 -3 -600 -2 -18 39 c-47 105 -151 147 -251 102 -46 -21 -77
-56 -96 -108 l-13 -35 -69 4 c-60 3 -71 7 -92 31 -23 27 -24 35 -24 163 l0
134 95 0 95 0 0 175 0 175 -95 0 c-87 0 -107 5 -88 23 3 4 550 7 1215 7 1067
0 1208 -2 1208 -15z m-2280 -190 l0 -145 -80 0 -80 0 0 145 0 145 80 0 80 0 0
-145z m2280 -65 l0 -210 -110 0 -110 0 0 210 0 210 110 0 110 0 0 -210z
m-1981 -348 c86 -64 85 -160 -2 -212 -88 -54 -206 8 -207 108 0 102 127 165
209 104z m1572 -5 c80 -54 63 -169 -33 -221 -32 -18 -40 -19 -78 -7 -117 35
-143 162 -47 229 43 30 112 30 158 -1z"/>
<path d="M930 1845 l0 -155 190 0 190 0 0 155 0 155 -190 0 -190 0 0 -155z
m350 0 l0 -135 -160 0 -160 0 0 135 0 135 160 0 160 0 0 -135z"/>
<path d="M1330 1845 l0 -155 185 0 185 0 0 155 0 155 -185 0 -185 0 0 -155z
m345 0 l0 -130 -157 -3 -158 -3 0 136 0 136 158 -3 157 -3 0 -130z"/>
<path d="M1720 1845 l0 -155 185 0 185 0 0 155 0 155 -185 0 -185 0 0 -155z
m350 0 l0 -136 -157 3 -158 3 -3 119 c-1 66 0 126 2 133 4 10 42 13 161 13
l155 0 0 -135z"/>
<path d="M2110 1845 l0 -155 190 0 190 0 0 155 0 155 -190 0 -190 0 0 -155z
m350 0 l0 -135 -155 0 -155 0 0 135 0 135 155 0 155 0 0 -135z"/>
<path d="M2510 1845 l0 -155 185 0 185 0 0 155 0 155 -185 0 -185 0 0 -155z
m350 0 l0 -135 -160 0 -160 0 0 135 0 135 160 0 160 0 0 -135z"/>
<path d="M3229 2192 c-47 -42 -27 -62 21 -21 25 21 31 32 23 40 -8 8 -20 2
-44 -19z"/>
<path d="M4600 2166 c0 -9 7 -33 15 -53 21 -51 40 -31 22 22 -14 40 -37 59
-37 31z"/>
<path d="M4640 1934 c0 -73 24 -70 28 4 2 42 0 52 -12 52 -13 0 -16 -12 -16
-56z"/>
<path d="M4612 1751 c-15 -47 -15 -61 -2 -61 11 0 24 29 36 75 11 43 -21 30
-34 -14z"/>
<path d="M4487 1669 c-11 -6 -25 -26 -33 -45 -36 -87 70 -164 140 -101 59 52
21 157 -56 157 -18 0 -41 -5 -51 -11z m103 -51 c13 -25 13 -31 0 -55 -21 -38
-81 -45 -104 -11 -9 12 -16 29 -16 38 0 9 7 26 16 38 23 34 83 27 104 -10z"/>
</g>
</svg>
